<?xml version="1.0" encoding="UTF-8" standalone="no"?><!DOCTYPE svg PUBLIC "-//W3C//DTD SVG 1.1//EN" "http://www.w3.org/Graphics/SVG/1.1/DTD/svg11.dtd"><svg width="100%" height="100%" viewBox="0 0 288 288" version="1.1" xmlns="http://www.w3.org/2000/svg" xmlns:xlink="http://www.w3.org/1999/xlink" xml:space="preserve" xmlns:serif="http://www.serif.com/" style="fill-rule:evenodd;clip-rule:evenodd;stroke-linejoin:round;stroke-miterlimit:1.41421;"><path d="M105.022,252.299c0,2.79 -1.108,5.466 -3.081,7.439c-1.973,1.973 -4.649,3.081 -7.439,3.081c-0.001,0 -0.003,0 -0.004,0c-2.79,0 -5.466,-1.108 -7.439,-3.081c-1.973,-1.973 -3.081,-4.649 -3.081,-7.439c0,-9.429 0,-21.787 0,-21.787l-5.448,0c-11.621,0 -21.042,-9.421 -21.042,-21.042l0,-5.448l-21.787,0c-2.79,0 -5.466,-1.108 -7.439,-3.081c-1.973,-1.973 -3.081,-4.649 -3.081,-7.439c0,-0.001 0,-0.003 0,-0.004c0,-2.79 1.108,-5.466 3.081,-7.439c1.973,-1.973 4.649,-3.081 7.439,-3.081c9.429,0 21.787,0 21.787,0l0,-11.956l-21.787,0c-2.79,0 -5.466,-1.108 -7.439,-3.081c-1.973,-1.973 -3.081,-4.649 -3.081,-7.439c0,-0.001 0,-0.003 0,-0.004c0,-2.79 1.108,-5.466 3.081,-7.439c1.973,-1.973 4.649,-3.081 7.439,-3.081c9.429,0 21.787,0 21.787,0l0,-11.956l-21.787,0c-2.79,0 -5.466,-1.108 -7.439,-3.081c-1.973,-1.973 -3.081,-4.649 -3.081,-7.439c0,-0.001 0,-0.003 0,-0.004c0,-2.79 1.108,-5.466 3.081,-7.439c1.973,-1.973 4.649,-3.081 7.439,-3.081c9.429,0 21.787,0 21.787,0l0,-11.956l-21.787,0c-2.79,0 -5.466,-1.108 -7.439,-3.081c-1.973,-1.973 -3.081,-4.649 -3.081,-7.439c0,-0.001 0,-0.003 0,-0.004c0,-2.79 1.108,-5.466 3.081,-7.439c1.973,-1.973 4.649,-3.081 7.439,-3.081c9.429,0 21.787,0 21.787,0l0,-5.448c0,-11.621 9.421,-21.042 21.042,-21.042l5.448,0l0,-21.787c0,-2.79 1.108,-5.466 3.081,-7.439c1.973,-1.973 4.649,-3.081 7.439,-3.081c0.001,0 0.003,0 0.004,0c2.79,0 5.466,1.108 7.439,3.081c1.973,1.973 3.081,4.649 3.081,7.439c0,9.429 0,21.787 0,21.787l11.956,0l0,-21.787c0,-2.79 1.108,-5.466 3.081,-7.439c1.973,-1.973 4.649,-3.081 7.439,-3.081c0.001,0 0.003,0 0.004,0c2.79,0 5.466,1.108 7.439,3.081c1.973,1.973 3.081,4.649 3.081,7.439c0,9.429 0,21.787 0,21.787l11.956,0l0,-21.787c0,-2.79 1.108,-5.466 3.081,-7.439c1.973,-1.973 4.649,-3.081 7.439,-3.081c0.001,0 0.003,0 0.004,0c2.79,0 5.466,1.108 7.439,3.081c1.973,1.973 3.081,4.649 3.081,7.439c0,9.429 0,21.787 0,21.787l11.956,0l0,-21.787c0,-2.79 1.108,-5.466 3.081,-7.439c1.973,-1.973 4.649,-3.081 7.439,-3.081c0.001,0 0.003,0 0.004,0c2.79,0 5.466,1.108 7.439,3.081c1.973,1.973 3.081,4.649 3.081,7.439c0,9.429 0,21.787 0,21.787l5.448,0c11.621,0 21.042,9.421 21.042,21.042l0,5.448l21.787,0c2.79,0 5.466,1.108 7.439,3.081c1.973,1.973 3.081,4.649 3.081,7.439c0,0.001 0,0.003 0,0.004c0,2.79 -1.108,5.466 -3.081,7.439c-1.973,1.973 -4.649,3.081 -7.439,3.081c-9.429,0 -21.787,0 -21.787,0l0,11.956l21.787,0c2.79,0 5.466,1.108 7.439,3.081c1.973,1.973 3.081,4.649 3.081,7.439c0,0.001 0,0.003 0,0.004c0,2.79 -1.108,5.466 -3.081,7.439c-1.973,1.973 -4.649,3.081 -7.439,3.081c-9.429,0 -21.787,0 -21.787,0l0,11.956l21.787,0c2.79,0 5.466,1.108 7.439,3.081c1.973,1.973 3.081,4.649 3.081,7.439c0,0.001 0,0.003 0,0.004c0,2.79 -1.108,5.466 -3.081,7.439c-1.973,1.973 -4.649,3.081 -7.439,3.081c-9.429,0 -21.787,0 -21.787,0l0,11.956l21.787,0c2.79,0 5.466,1.108 7.439,3.081c1.973,1.973 3.081,4.649 3.081,7.439c0,0.001 0,0.003 0,0.004c0,2.79 -1.108,5.466 -3.081,7.439c-1.973,1.973 -4.649,3.081 -7.439,3.081c-9.429,0 -21.787,0 -21.787,0l0,5.448c0,11.621 -9.421,21.042 -21.042,21.042l-5.448,0l0,21.787c0,2.79 -1.108,5.466 -3.081,7.439c-1.973,1.973 -4.649,3.081 -7.439,3.081c-0.001,0 -0.003,0 -0.004,0c-2.79,0 -5.466,-1.108 -7.439,-3.081c-1.973,-1.973 -3.081,-4.649 -3.081,-7.439c0,-9.429 0,-21.787 0,-21.787l-11.956,0l0,21.787c0,2.79 -1.108,5.466 -3.081,7.439c-1.973,1.973 -4.649,3.081 -7.439,3.081c-0.001,0 -0.003,0 -0.004,0c-2.79,0 -5.466,-1.108 -7.439,-3.081c-1.973,-1.973 -3.081,-4.649 -3.081,-7.439c0,-9.429 0,-21.787 0,-21.787l-11.956,0l0,21.787c0,2.79 -1.108,5.466 -3.081,7.439c-1.973,1.973 -4.649,3.081 -7.439,3.081c-0.001,0 -0.003,0 -0.004,0c-2.79,0 -5.466,-1.108 -7.439,-3.081c-1.973,-1.973 -3.081,-4.649 -3.081,-7.439c0,-9.429 0,-21.787 0,-21.787l-11.956,0l0,21.787Zm104.485,-168.52c0,-1.518 -0.603,-2.974 -1.677,-4.047c-1.073,-1.074 -2.529,-1.677 -4.048,-1.677c-21.592,0 -97.972,0 -119.564,0c-1.519,0 -2.975,0.603 -4.048,1.677c-1.074,1.073 -1.677,2.529 -1.677,4.047c0,21.698 0,98.744 0,120.442c0,1.518 0.603,2.974 1.677,4.047c1.073,1.074 2.529,1.677 4.048,1.677c21.592,0 97.972,0 119.564,0c1.519,0 2.975,-0.603 4.048,-1.677c1.074,-1.073 1.677,-2.529 1.677,-4.047c0,-21.698 0,-98.744 0,-120.442Zm-35.174,7.846c11.621,0 21.042,9.421 21.042,21.042c0,18.222 0,44.444 0,62.666c0,11.621 -9.421,21.042 -21.042,21.042c-17.722,0 -42.944,0 -60.666,0c-11.621,0 -21.042,-9.421 -21.042,-21.042c0,-18.222 0,-44.444 0,-62.666c0,-11.621 9.421,-21.042 21.042,-21.042c17.722,0 42.944,0 60.666,0Z"/></svg>