<?xml version="1.0" encoding="UTF-8" standalone="no"?><!DOCTYPE svg PUBLIC "-//W3C//DTD SVG 1.1//EN" "http://www.w3.org/Graphics/SVG/1.1/DTD/svg11.dtd"><svg width="100%" height="100%" viewBox="0 0 189 226" version="1.1" xmlns="http://www.w3.org/2000/svg" xmlns:xlink="http://www.w3.org/1999/xlink" xml:space="preserve" xmlns:serif="http://www.serif.com/" style="fill-rule:evenodd;clip-rule:evenodd;stroke-linejoin:round;stroke-miterlimit:1.41421;"><g><path d="M39.662,7.728l-31.958,33.36l-0.001,65.6l29.914,30.479l-29.914,0l0.001,48.081l32.067,32.4l109.293,0l32.09,-32.4l0,-69.067l-27.652,-27.984l27.652,0l0,-47.109l-31.981,-33.36l-109.509,0l-0.002,0Zm3.25,7.609l103.01,0l27.614,28.813l0,36.427l-40.77,0l0,11.469l13.984,0l26.786,27.469l0,62.597l-27.638,27.92l-102.944,0l-27.636,-27.92l0.001,-37.346l39.157,0l0,-13.048l-11.538,0l-27.619,-28.141l0,-59.427l27.594,-28.813l-0.001,0Zm44.042,39.679l25.099,19.64l0,-19.64l-25.099,0Zm-11.652,17.344l0,19.686l25.58,0l-25.58,-19.686Zm0.032,67.843l0,20.469l36.719,0l0,-7.141l14.76,0l0,-6.538l-14.76,0l0,-6.79l-36.719,0Z" style="fill-rule:nonzero;"/><path d="M44.538,19.15l-25.413,26.532l0,56.334l25.413,25.899l11.353,0l11.771,-8.39l52.056,0l13.069,9.469l0,18l-2.177,0l0,6.537l2.177,0l0,18.965l-12.889,9.28l-52.023,0l-13.4,-9.76l0,-23.438l-35.35,0l0,31.966l25.413,25.68l99.76,0l25.43,-25.68l0,-59.488l-24.696,-25.203l-12.266,0l0,5.99l-19.14,0l-7.797,-5.99l-30.527,0l0,5.897l-20.827,-0.028l0,-56.375l20.119,0l7.491,5.866l29.968,0l0,-5.866l20.713,0l0,31.427l36.962,0l0,-31.092l-25.43,-26.532l-99.76,0l0,0Zm13.744,30l0,48.804l13.219,0l0,-33.32l43.411,33.406l14.042,0l0,-48.89l-13.088,0l0,33.335l-42.584,-33.335l-15,0l0,0Zm10.6,74.188l-10.6,7.547l0,39.195l10.708,7.904l49.688,0l10.322,-7.424l0,-13.216l-13.134,0l0,7.136l-44.335,0l0,-28.08l44.335,0l0,6.787l13.134,0l0,-12.265l-10.515,-7.584l-49.603,0Z" style="fill:#c00;fill-rule:nonzero;"/><path d="M42.912,15.337l-27.594,28.813l0.001,59.427l27.619,28.141l11.538,0l0,13.048l-39.157,0l0,37.346l27.635,27.92l102.944,0l27.639,-27.92l0,-62.597l-26.786,-27.469l-13.984,0l0,-11.469l40.77,0l0,-36.427l-27.615,-28.813l-103.009,0l-0.001,0Zm1.626,3.813l99.76,0l25.43,26.532l0,31.092l-36.962,0l0,-31.43l-20.713,0l0,5.869l-29.968,0l-7.491,-5.869l-20.119,0l0,56.374l20.827,0.032l0,-5.897l30.527,0l7.797,5.99l19.14,0l0,-5.99l12.266,0l24.696,25.203l0,59.488l-25.43,25.68l-99.76,0l-25.413,-25.68l0,-31.966l35.35,0l0,23.438l13.4,9.76l52.023,0l12.889,-9.28l0,-18.965l-2.177,0l0,-6.537l2.177,0l0,-18l-13.069,-9.469l-52.056,0l-11.771,8.39l-11.353,0l-25.413,-25.899l0,-56.334l25.413,-26.532Zm13.744,30l15,0l42.584,33.335l0,-33.335l13.088,0l0,48.89l-14.042,0l-43.411,-33.406l0,33.32l-13.219,0l0,-48.804Zm28.672,5.866l25.099,0l0,19.64l-25.099,-19.64Zm-11.652,17.344l25.58,19.686l-25.58,0l0,-19.686Zm-6.42,50.978l49.603,0l10.515,7.584l0,12.265l-13.134,0l0,-6.787l-44.335,0l0,28.08l44.335,0l0,-7.136l13.134,0l0,13.216l-10.322,7.424l-49.688,0l-10.708,-7.904l0,-39.195l10.6,-7.547Zm6.452,16.865l36.719,0l0,6.791l14.76,0l0,6.537l-14.76,0l0,7.141l-36.719,0l0,-20.469Z" style="fill:#fff;fill-rule:nonzero;"/></g></svg>