<?xml version="1.0" encoding="UTF-8" standalone="no"?><!DOCTYPE svg PUBLIC "-//W3C//DTD SVG 1.1//EN" "http://www.w3.org/Graphics/SVG/1.1/DTD/svg11.dtd">

<svg width="100%" height="100%" viewBox="0 0 216 216" version="1.1" xmlns="http://www.w3.org/2000/svg" xmlns:xlink="http://www.w3.org/1999/xlink" xml:space="preserve" xmlns:serif="http://www.serif.com/" style="fill-rule:evenodd;clip-rule:evenodd;stroke-linejoin:round;stroke-miterlimit:1.41421;"><path d="M108,2.805c58.059,0 105.195,47.136 105.195,105.195c0,58.059 -47.136,105.195 -105.195,105.195c-58.059,0 -105.195,-47.136 -105.195,-105.195c0,-58.059 47.136,-105.195 105.195,-105.195Zm-40.224,160.391c-0.78,-1.065 -0.893,-2.527 -0.191,-3.726c16.154,-27.616 26.677,-48.668 26.677,-48.668l-14.113,-9.713c-3.496,-2.406 -5.664,-6.608 -3.226,-9.295c1.96,-2.16 5.648,-0.533 12.577,-3.042c4.338,-1.572 6.573,-2.418 11.967,-6.192c5.289,-3.7 6.941,-5.392 10.983,-10.119c4.429,-5.179 0.397,-10.329 2.016,-12.681c1.618,-2.351 5.38,-1.59 7.456,-1.083c1.94,0.474 4.853,0.595 13.812,6.76c5.823,4.007 10.111,8.843 11.247,10.486c1.215,1.758 3.27,5 1.652,7.351c-1.619,2.352 -7.348,0.739 -11.124,6.413c-3.448,5.18 -4.48,7.254 -6.047,13.516c-1.598,6.386 -0.876,9.563 -0.407,14.147c0.897,8.766 3.018,9.524 1.184,12.513c-1.6,2.607 -6.454,2.633 -9.951,0.226l-14.112,-9.712c0,0 -15.905,17.348 -35.929,42.302c-0.869,1.083 -2.275,1.5 -3.548,1.152c0,0 -0.204,-0.048 -0.505,-0.255c-0.225,-0.155 -0.418,-0.38 -0.418,-0.38Z" style="fill:#fc7165;"/></svg>