<?xml version="1.0" encoding="iso-8859-1"?>
<!-- Generator: Adobe Illustrator 16.0.0, SVG Export Plug-In . SVG Version: 6.00 Build 0)  -->
<!DOCTYPE svg PUBLIC "-//W3C//DTD SVG 1.1//EN" "http://www.w3.org/Graphics/SVG/1.1/DTD/svg11.dtd">
<svg version="1.1" id="Capa_1" xmlns="http://www.w3.org/2000/svg" xmlns:xlink="http://www.w3.org/1999/xlink" x="0px" y="0px"
	 width="558.756px" height="558.756px" viewBox="0 0 558.756 558.756" style="enable-background:new 0 0 558.756 558.756;"
	 xml:space="preserve">
<g>
	<g>
		<path d="M279.377,0c-97.079,0-175.76,78.679-175.76,175.76c0,18.333,2.815,35.976,7.999,52.589l63.883,168.86
			c4.499,14.281,17.849,24.612,33.574,24.612h140.608c15.756,0,29.076-10.334,33.537-24.612l63.92-168.86
			c5.184-16.616,8-34.26,8-52.589C455.135,78.679,376.455,0,279.377,0z M282.264,85.955c-51.106,0-92.691,41.567-92.691,92.69
			c0,10.248-8.293,18.538-18.538,18.538c-10.248,0-18.538-8.29-18.538-18.538c0-71.546,58.223-129.768,129.768-129.768
			c10.248,0,18.537,8.29,18.537,18.537C300.803,77.663,292.512,85.955,282.264,85.955z"/>
		<path d="M208.128,491.53h142.5c13.129,0,23.75-10.621,23.75-23.748c0-13.128-10.621-23.749-23.75-23.749h-142.5
			c-13.127,0-23.749,10.621-23.749,23.749C184.376,480.909,194.998,491.53,208.128,491.53z"/>
		<path d="M208.128,558.756h142.5c13.129,0,23.75-10.621,23.75-23.749c0-13.127-10.621-23.748-23.75-23.748h-142.5
			c-13.127,0-23.749,10.621-23.749,23.748C184.38,548.135,194.998,558.756,208.128,558.756z"/>
	</g>
</g>
<g>
</g>
<g>
</g>
<g>
</g>
<g>
</g>
<g>
</g>
<g>
</g>
<g>
</g>
<g>
</g>
<g>
</g>
<g>
</g>
<g>
</g>
<g>
</g>
<g>
</g>
<g>
</g>
<g>
</g>
</svg>
