<?xml version="1.0" encoding="UTF-8" standalone="no"?>
<!DOCTYPE svg PUBLIC "-//W3C//DTD SVG 1.1//EN" "http://www.w3.org/Graphics/SVG/1.1/DTD/svg11.dtd">
<svg width="100%" height="100%" viewBox="0 0 500 500" version="1.1" xmlns="http://www.w3.org/2000/svg" xmlns:xlink="http://www.w3.org/1999/xlink" xml:space="preserve" xmlns:serif="http://www.serif.com/" style="fill-rule:evenodd;clip-rule:evenodd;stroke-linejoin:round;stroke-miterlimit:1.41421;">
    <g fill="#FFF498" transform="matrix(-0.707107,-0.707107,-0.707107,0.707107,654.424,385.241)">
        <path d="M240.077,115.425C240.077,176.103 240.078,236.78 240.073,297.457C240.066,298.887 240.035,299.128 239.969,299.915C239.156,309.569 232.556,317.833 226.321,326.047C219.774,334.673 213.093,343.584 203.902,349.198C200.886,351.04 197.373,352.272 193.958,351.529C187.887,350.209 182.965,345.375 178.364,340.619C170.668,332.665 164.072,323.674 157.785,314.504C157.785,314.504 155.813,311.638 154.644,308.87C153.123,305.266 152.351,301.349 152.333,297.457L152.333,115.425L152.333,91.923C152.333,86.423 152.333,77.348 152.333,77.348C152.333,77.348 152.762,71.395 153.894,68.181C157.606,57.641 168.107,49.935 179.577,49.754C190.603,49.649 201.629,49.717 212.655,49.752C223.945,49.859 234.427,57.549 238.398,68.181C239.47,71.052 240.067,74.138 240.077,77.348L240.077,91.922L240.077,91.923L240.077,115.425L240.077,115.425ZM204.946,340.808C205.208,340.53 205.279,340.123 205.127,339.772C204.976,339.421 204.63,339.194 204.248,339.194C200.327,339.191 192.305,339.191 188.37,339.191C187.979,339.19 187.626,339.427 187.479,339.79C187.331,340.153 187.418,340.568 187.699,340.841C188.63,341.786 189.619,342.737 190.59,343.4C193.412,345.327 198.442,345.105 201.591,343.4C203.179,342.541 204,341.788 204.946,340.808ZM231.63,307.512C231.766,307.214 231.742,306.867 231.564,306.591C231.387,306.316 231.082,306.149 230.754,306.149C221.476,306.147 171.45,306.147 161.729,306.147C161.397,306.146 161.088,306.317 160.911,306.599C160.734,306.88 160.715,307.233 160.859,307.532C162.446,310.155 166.146,315.744 170.091,321.304C173.214,325.706 176.49,330.089 178.99,332.968C179.609,333.662 180.515,334.03 181.443,333.963C187.018,333.963 205.871,333.964 211.12,333.964C211.994,333.963 212.824,333.58 213.393,332.916C216.543,329.21 219.467,325.193 222.383,321.304C225.723,316.851 229.321,312.403 231.63,307.512ZM229.969,124.654C231.319,124.848 232.091,125.546 232.236,127.392L232.236,292.036C232.049,294.412 228.825,295.829 227.036,293.987C226.531,293.466 226.294,292.778 226.236,292.036L226.236,127.392C226.333,126.155 226.514,126.118 226.757,125.777C227.359,124.933 227.972,124.366 229.969,124.654ZM234.077,95.899C234.077,95.64 233.975,95.392 233.791,95.208C233.608,95.025 233.36,94.923 233.101,94.923C224.91,94.923 167.74,94.923 159.358,94.923C158.791,94.923 158.333,95.381 158.333,95.947C158.333,96.379 158.333,96.88 158.333,97.313C158.333,97.888 158.798,98.353 159.372,98.353C165.033,98.354 191.882,98.36 191.882,98.36C191.882,98.36 194.39,98.819 194.39,101.12C194.39,104.089 191.882,104.353 191.882,104.353L159.308,104.353C158.769,104.353 158.333,104.79 158.333,105.328C158.333,105.613 158.333,105.924 158.333,106.212C158.333,106.484 158.441,106.746 158.634,106.939C158.826,107.131 159.088,107.24 159.361,107.24C166.593,107.24 209.542,107.24 209.542,107.24C209.542,107.24 212.757,107.612 212.757,109.919C212.757,112.225 211.255,113.171 209.542,113.24L159.376,113.24C158.8,113.24 158.333,113.707 158.333,114.283C158.333,114.314 158.333,114.345 158.333,114.376C158.333,114.955 158.802,115.425 159.382,115.425C167.849,115.425 224.906,115.425 233.098,115.425C233.358,115.425 233.607,115.322 233.791,115.138C233.974,114.955 234.077,114.706 234.077,114.446C234.077,110.986 234.077,99.355 234.077,95.899ZM200.459,104.353C199.699,104.353 197.981,103.557 197.981,101.331C197.981,99.105 199.704,98.36 200.459,98.36L204.131,98.36C204.886,98.36 206.609,99.105 206.609,101.331C206.609,103.557 204.892,104.353 204.131,104.353L200.459,104.353ZM179.938,55.752C168.656,55.787 158.371,65.474 158.333,77.357L158.333,87.908C158.333,88.177 158.439,88.435 158.63,88.625C158.82,88.816 159.078,88.923 159.347,88.923C167.684,88.923 224.816,88.923 233.082,88.923C233.632,88.922 234.079,88.478 234.083,87.928C234.149,81.717 234.748,75.438 232.813,70.049C229.868,61.851 221.656,55.894 212.757,55.753C201.818,55.65 190.878,55.752 179.938,55.752Z"/>
    </g>
    <g fill="#FFF498" transform="matrix(0.933418,0,0,0.927501,-56.2205,-62.2562)">
        <path d="M269.692,192.193L269.743,192.193L269.746,192.193C271.66,192.196 273.574,192.273 275.484,192.42C279.188,192.771 282.268,195.42 283.169,199.03C283.174,199.049 283.179,199.069 283.219,199.079C284.076,202.51 286.587,205.287 289.913,206.485C291.494,207.062 293.049,207.706 294.559,208.448C297.769,209.958 301.521,209.769 304.563,207.944C304.58,207.933 304.597,207.923 304.634,207.946C307.81,206.039 311.843,206.343 314.698,208.703C317.792,211.305 320.657,214.17 323.289,217.239C325.659,220.107 325.964,224.158 324.049,227.348C324.039,227.365 324.029,227.382 324.049,227.418C322.23,230.449 322.041,234.188 323.547,237.388C324.256,238.913 324.9,240.468 325.444,242.06C326.645,245.399 329.432,247.918 332.874,248.778C332.893,248.783 332.913,248.788 332.923,248.83C336.516,249.728 339.153,252.794 339.503,256.481C339.851,260.51 339.851,264.56 339.542,268.592C339.19,272.296 336.542,275.376 332.932,276.278C332.913,276.282 332.893,276.287 332.882,276.327C329.452,277.184 326.675,279.695 325.477,283.022C324.9,284.602 324.256,286.157 323.514,287.667C322.004,290.877 322.193,294.629 324.018,297.671C324.029,297.688 324.039,297.705 324.016,297.742C325.922,300.918 325.619,304.951 323.259,307.806C320.657,310.9 317.792,313.765 314.723,316.397C311.855,318.767 307.804,319.072 304.614,317.157C304.597,317.147 304.58,317.137 304.544,317.157C301.513,315.338 297.773,315.149 294.574,316.655C293.049,317.364 291.494,318.008 289.901,318.552C286.563,319.753 284.044,322.54 283.184,325.982C283.179,326.001 283.174,326.021 283.132,326.031C282.234,329.624 279.168,332.262 275.48,332.611C271.452,332.959 267.401,332.959 263.37,332.65C259.666,332.299 256.586,329.65 255.684,326.04C255.679,326.021 255.675,326.001 255.635,325.991C254.778,322.56 252.267,319.783 248.94,318.585C247.36,318.008 245.805,317.364 244.295,316.622C241.085,315.112 237.333,315.301 234.291,317.126C234.274,317.137 234.257,317.147 234.22,317.124C231.044,319.031 227.011,318.727 224.156,316.367C221.061,313.765 218.197,310.9 215.565,307.831C213.194,304.963 212.89,300.912 214.804,297.722C214.815,297.705 214.825,297.688 214.804,297.652C216.624,294.621 216.812,290.882 215.307,287.682C214.598,286.157 213.954,284.602 213.41,283.01C212.208,279.672 209.422,277.152 205.98,276.292C205.961,276.287 205.941,276.282 205.931,276.24C202.337,275.342 199.7,272.276 199.35,268.589C199.13,266.032 199.049,263.465 199.099,260.901C199.056,259.384 199.106,257.902 199.309,256.522L199.312,256.478C199.386,255.695 199.563,254.941 199.83,254.229C200.391,252.498 201.32,251.044 202.782,250.055C203.892,249.304 205.415,248.903 205.415,248.903C209.863,247.681 212.795,243.285 214.14,239.907C214.465,239.09 214.552,238.841 215.23,237.388C215.615,236.581 215.927,235.745 216.158,234.895C216.651,232.349 216.201,229.675 214.835,227.399C214.825,227.382 214.815,227.365 214.837,227.328C213.429,224.981 213.227,222.167 214.169,219.706C214.351,219.015 214.633,218.352 215.016,217.746C215.155,217.526 215.306,217.313 215.468,217.109C218.608,213.155 222.328,208.611 226.404,207.313C228.918,206.286 231.825,206.463 234.239,207.913C234.257,207.923 234.274,207.933 234.309,207.913C235.816,208.817 237.497,209.318 239.199,209.409C241.379,209.245 243.473,208.634 245.12,207.925C245.927,207.578 246.164,207.463 247.672,206.916C250.664,205.854 253.257,203.899 254.768,201.18C255.125,200.537 255.416,199.831 255.628,199.251C255.642,199.197 255.656,199.143 255.67,199.088C255.674,199.073 255.677,199.057 255.701,199.046L255.766,198.86L255.784,198.805C255.839,198.608 255.9,198.415 255.968,198.224C256.003,198.107 256.021,198.04 256.021,198.04C256.721,195.506 258.864,193.45 261.409,192.875L261.424,192.871C262.047,192.663 262.7,192.522 263.373,192.459C265.475,192.277 267.584,192.19 269.692,192.193ZM257.849,239.594C259.275,239.878 259.494,241.731 257.865,242.674C248.08,248.442 243.732,261.84 248.593,272.241C252.965,281.599 264.2,287.18 274.295,284.999C280.582,283.641 286.157,279.532 289.405,273.896C289.405,273.896 290.189,272.963 291.078,273.192C292.111,273.458 292.597,274.412 291.686,275.935C285.14,286.681 270.345,291.471 258.737,286.219C248.201,281.452 241.718,269.019 243.913,257.607C245.333,250.224 250.113,243.621 256.725,239.87C256.725,239.87 257.148,239.532 257.849,239.594ZM196.935,269.795C197.108,270.756 196.682,270.551 195.994,271.244C195.358,271.879 194.381,272.494 193.792,273.493C192.775,275.216 192.294,277.343 192.253,277.353C190.842,282.999 186.025,287.142 180.231,287.692C173.905,288.238 167.543,288.238 161.212,287.752C155.392,287.2 150.554,283.039 149.137,277.368C149.129,277.338 149.122,277.308 149.06,277.292C147.713,271.903 143.769,267.541 138.544,265.659C136.062,264.752 133.619,263.741 131.247,262.576C126.204,260.203 120.311,260.5 115.533,263.368C115.506,263.384 115.48,263.4 115.422,263.364C110.432,266.359 104.096,265.882 99.611,262.173C94.752,258.087 90.253,253.589 86.119,248.768C82.395,244.263 81.916,237.898 84.925,232.887C84.941,232.86 84.956,232.834 84.924,232.778C87.782,228.016 88.078,222.143 85.713,217.117C84.6,214.721 83.588,212.278 82.734,209.777C80.846,204.534 76.469,200.576 71.062,199.226C71.032,199.218 71.002,199.211 70.987,199.144C65.341,197.734 61.198,192.916 60.648,187.123C60.102,180.797 60.102,174.435 60.588,168.103C61.14,162.284 65.301,157.445 70.972,156.029C71.002,156.021 71.032,156.014 71.049,155.951C76.437,154.605 80.799,150.661 82.681,145.436C83.588,142.954 84.6,140.511 85.764,138.139C88.137,133.096 87.84,127.203 84.972,122.425C84.956,122.398 84.941,122.372 84.977,122.314C81.982,117.324 82.458,110.988 86.167,106.503C90.253,101.643 94.752,97.145 99.572,93.011C104.077,89.287 110.442,88.808 115.454,91.816C115.48,91.832 115.506,91.848 115.562,91.816C120.324,94.674 126.198,94.97 131.223,92.605C133.619,91.491 136.062,90.48 138.563,89.626C143.806,87.738 147.764,83.361 149.115,77.954C149.122,77.924 149.129,77.894 149.196,77.879C150.606,72.233 155.424,68.09 161.217,67.54C167.543,66.994 173.905,66.994 180.237,67.48C186.056,68.032 190.895,72.193 192.311,77.864C192.319,77.894 192.326,77.924 192.389,77.94C193.735,83.329 197.679,87.691 202.905,89.573C205.387,90.48 207.829,91.491 210.202,92.656C215.244,95.029 221.137,94.732 225.915,91.864C225.942,91.848 225.968,91.832 226.026,91.868C231.016,88.873 237.352,89.35 241.837,93.058C246.697,97.145 251.195,101.643 255.329,106.464C259.053,110.969 259.532,117.333 256.524,122.345C256.508,122.372 256.492,122.398 256.525,122.454C253.666,127.216 253.37,133.089 255.735,138.115C256.849,140.511 257.86,142.954 258.714,145.455C260.602,150.698 264.979,154.655 270.386,156.006C270.416,156.014 270.446,156.021 270.461,156.088C276.107,157.498 280.25,162.316 280.8,168.109C281.346,174.435 281.346,180.797 280.86,187.129C280.796,187.804 280.726,188.317 280.618,188.783C280.485,189.327 280.364,190.526 279.87,190.788C279.375,191.051 278.552,190.572 278.027,190.377C276.439,189.875 274.6,189.697 272.865,189.598C271.322,189.51 269.777,189.466 268.232,189.47C266.685,189.473 265.139,189.524 263.596,189.624C258.886,189.93 254.67,192.524 253.269,196.773C253.212,196.951 253.179,196.961 253.031,197.467C251.761,202.387 247.086,203.786 242.19,205.952C238.175,207.654 233.467,205.201 233.467,205.201C229.402,203.001 224.305,204.203 220.799,207.328C219.646,208.357 218.522,209.419 217.432,210.514C216.342,211.61 215.284,212.74 214.264,213.902C211.15,217.447 210.003,222.262 212.016,226.258C212.098,226.417 212.079,226.442 212.339,226.917C214.922,231.298 212.609,235.574 210.673,240.583C209.027,244.651 203.974,246.22 203.974,246.22C199.544,247.538 196.789,251.995 196.521,256.682C196.432,258.224 196.389,259.77 196.393,261.315C196.396,262.862 196.447,264.408 196.547,265.951C196.591,266.621 196.801,268.854 196.935,269.795ZM269.427,245.239C278.973,245.239 286.723,252.989 286.723,262.535C286.723,272.081 278.973,279.831 269.427,279.831C259.881,279.831 252.131,272.081 252.131,262.535C252.131,252.989 259.881,245.239 269.427,245.239ZM293.508,256.419C295.435,256.497 295.633,259.928 295.401,262.687C295.218,264.214 292.477,264.818 292.398,261.842C292.371,261.023 292.306,260.206 292.195,259.394C292.006,258.01 291.968,256.409 293.508,256.419ZM281.306,239.581C283.052,239.729 284.691,241.401 286.346,242.823C288.603,244.762 290.514,247.093 292.004,249.676C292.004,249.676 292.328,250.396 292.1,250.974C291.65,252.12 290.043,252.229 289.1,250.656C286.998,247.22 284.025,244.359 280.488,242.389C280.488,242.389 278.729,239.493 281.306,239.581ZM170.958,141.468C186.376,141.615 200.98,152.533 205.376,167.297C209.991,182.797 202.779,200.993 188.523,209.08C173.114,217.821 151.393,213.327 140.899,198.037C139.788,196.417 140.369,194.512 141.859,194.831C143.24,195.126 143.673,196.825 144.58,197.987C154.966,211.292 176.12,214.838 190.391,204.295C201.003,196.456 206.15,181.905 202.777,169.137C197.373,148.685 169.772,136.32 150.293,151.519C150.293,151.519 149.552,152.078 148.859,151.902C147.641,151.592 147.175,150.122 148.879,148.82C155.197,144.044 163.011,141.443 170.958,141.468ZM170.724,150.448C185.719,150.448 197.892,162.621 197.892,177.616C197.892,192.61 185.719,204.784 170.724,204.784C155.73,204.784 143.556,192.61 143.556,177.616C143.556,162.621 155.73,150.448 170.724,150.448ZM136.224,173.483C137.541,173.544 137.586,175.222 137.576,177.457C137.567,179.441 134.373,180.173 134.634,175.551C134.692,174.519 135.121,173.46 136.224,173.483ZM143.088,155.299C144.326,155.374 144.891,156.793 143.871,158.187C142.093,160.662 140.643,163.366 139.587,166.226C139.587,166.226 138.804,167.447 137.764,167.147C134.895,166.319 138.77,160.002 141.83,155.901C141.83,155.901 142.267,155.288 143.088,155.299Z"/>
    </g>
</svg>
