<?xml version="1.0" encoding="UTF-8" standalone="no"?><!DOCTYPE svg PUBLIC "-//W3C//DTD SVG 1.1//EN" "http://www.w3.org/Graphics/SVG/1.1/DTD/svg11.dtd"><svg width="100%" height="100%" viewBox="0 0 51 51" version="1.1" xmlns="http://www.w3.org/2000/svg" xmlns:xlink="http://www.w3.org/1999/xlink" xml:space="preserve" xmlns:serif="http://www.serif.com/" style="fill-rule:evenodd;clip-rule:evenodd;stroke-linejoin:round;stroke-miterlimit:1.41421;"><path d="M16.829,10.083c-0.293,-0.073 -0.564,-0.193 -0.809,-0.371c-2.568,-1.865 -0.797,-6.228 1.62,-7.136c3.401,-1.277 5.513,-1.541 8.74,0.611c1.173,0.782 2.213,2.201 2.365,2.261c3.017,1.191 9.908,9.51 13.369,13.978c2.222,2.868 3.032,3.482 4.106,8.319c0.37,0.435 0.864,1.202 0.843,1.78c-0.068,1.968 -1.312,3.771 -3.307,5.403l-0.04,0.009c-0.148,-0.241 -0.331,-0.459 -0.542,-0.648c0.139,-0.317 0.267,-0.637 0.382,-0.963c-0.243,-0.181 -0.507,-0.334 -0.786,-0.455c-0.224,0.262 -0.439,0.532 -0.644,0.81c-0.269,-0.089 -0.55,-0.139 -0.833,-0.148c-0.096,-0.332 -0.205,-0.659 -0.325,-0.983c-0.304,0.018 -0.604,0.07 -0.895,0.156c-0.004,0.346 0.005,0.691 0.027,1.035c-0.264,0.105 -0.51,0.247 -0.733,0.422c-0.287,-0.192 -0.581,-0.373 -0.881,-0.544c-0.222,0.209 -0.418,0.442 -0.585,0.695c0.219,0.267 0.447,0.526 0.685,0.776c-0.134,0.249 -0.232,0.517 -0.29,0.794c-0.343,0.037 -0.685,0.087 -1.024,0.15c-0.036,0.302 -0.036,0.606 -0.002,0.908c0.34,0.064 0.681,0.115 1.024,0.154c0.057,0.277 0.154,0.545 0.288,0.794c-0.128,0.134 -0.252,0.269 -0.374,0.407c-3.707,1.77 -8.13,3.252 -12.362,4.435c0.31,-0.335 0.783,-1.465 0.986,-1.875c0.551,0.08 1.105,0.139 1.66,0.178c0.177,-0.457 0.301,-0.932 0.368,-1.418c-0.504,-0.236 -1.017,-0.453 -1.537,-0.652c0.022,-0.456 -0.022,-0.913 -0.129,-1.357c0.473,-0.293 0.935,-0.604 1.386,-0.931c-0.158,-0.464 -0.369,-0.908 -0.629,-1.323c-0.539,0.143 -1.071,0.306 -1.597,0.489c-0.277,-0.364 -0.604,-0.686 -0.972,-0.957c0.175,-0.529 0.329,-1.064 0.464,-1.604c-0.419,-0.254 -0.866,-0.458 -1.332,-0.609c-0.321,0.456 -0.624,0.923 -0.91,1.401c-0.445,-0.101 -0.903,-0.138 -1.359,-0.109c-0.206,-0.517 -0.432,-1.026 -0.676,-1.527c-0.484,0.076 -0.958,0.207 -1.412,0.391c0.048,0.555 0.116,1.107 0.204,1.657c-0.406,0.209 -0.78,0.475 -1.111,0.791c-0.491,-0.264 -0.99,-0.509 -1.499,-0.736c-0.323,0.369 -0.602,0.774 -0.831,1.207c0.393,0.395 0.8,0.774 1.221,1.139c-0.176,0.421 -0.292,0.865 -0.342,1.319c-0.546,0.114 -1.086,0.247 -1.622,0.401c-0.009,0.49 0.037,0.979 0.139,1.458c0.555,0.05 1.111,0.079 1.668,0.087c0.136,0.437 0.333,0.851 0.586,1.231c-0.345,0.438 -0.673,0.888 -0.984,1.349c0.307,0.382 0.657,0.727 1.043,1.028c0.457,-0.318 0.902,-0.654 1.334,-1.005c0.282,0.181 1.606,1.005 1.606,1.005c0,0 -8.475,1.923 -11.314,3.013l-2.162,2.735l-5.694,0c0,0 1.479,-5.899 1.795,-6.537c0.577,0.083 1.164,0.083 1.741,0c0.316,0.638 0.654,1.263 1.016,1.876c0.608,-0.145 1.198,-0.36 1.758,-0.64c-0.117,-0.702 -0.259,-1.399 -0.428,-2.09c0.496,-0.307 0.945,-0.684 1.334,-1.119c0.652,0.285 1.313,0.547 1.984,0.784c0.373,-0.503 0.687,-1.046 0.936,-1.621c-0.541,-0.462 -1.098,-0.904 -1.671,-1.326c0.182,-0.554 0.284,-1.131 0.302,-1.715c0.683,-0.2 1.357,-0.424 2.024,-0.674c-0.037,-0.625 -0.146,-1.243 -0.325,-1.843c-0.712,-0.007 -1.422,0.013 -2.132,0.059c-0.217,-0.542 -0.51,-1.05 -0.871,-1.509c0.394,-0.592 0.767,-1.198 1.116,-1.817c-0.43,-0.455 -0.91,-0.858 -1.433,-1.203c-0.549,0.452 -1.081,0.924 -1.596,1.415c-0.514,-0.275 -1.065,-0.476 -1.636,-0.595c-0.079,-0.707 -0.183,-1.411 -0.313,-2.11c-0.622,-0.072 -1.25,-0.072 -1.871,0c-0.13,0.699 -0.235,1.403 -0.313,2.11c-0.301,0.063 -2.077,0.212 -2.313,-0.322c-0.236,-0.535 0.896,-2.886 0.896,-2.886c1.817,-2.382 5.343,-4.103 8.334,-4.041c2.53,0.053 5.399,0.982 8.08,3.312c3.781,-2.015 6.657,-2.475 9.932,-2.388c3.001,0.08 4.056,0.505 4.774,0.604c-2.84,-4.906 -6.739,-13.215 -8.287,-15.52c-0.552,-0.82 -1.565,-0.831 -2.753,-0.585c-0.018,-0.184 -0.057,-0.365 -0.116,-0.54c0.23,-0.171 0.454,-0.35 0.67,-0.538c-0.101,-0.231 -0.229,-0.449 -0.38,-0.651c-0.27,0.097 -0.536,0.204 -0.798,0.321c-0.158,-0.175 -0.34,-0.325 -0.54,-0.448c0.066,-0.279 0.122,-0.56 0.167,-0.843c-0.226,-0.112 -0.464,-0.197 -0.71,-0.254c-0.144,0.248 -0.279,0.501 -0.405,0.758c-0.233,-0.032 -0.469,-0.03 -0.701,0.004c-0.129,-0.256 -0.267,-0.507 -0.414,-0.753c-0.245,0.06 -0.482,0.148 -0.707,0.262c0.049,0.283 0.108,0.563 0.177,0.841c-0.199,0.125 -0.379,0.278 -0.535,0.454c-0.263,-0.113 -0.53,-0.217 -0.801,-0.311c-0.149,0.203 -0.274,0.423 -0.373,0.655c0.219,0.185 0.444,0.362 0.676,0.531c-0.072,0.223 -0.112,0.456 -0.118,0.691c-0.274,0.083 -0.546,0.175 -0.813,0.277c0.011,0.168 0.035,0.336 0.071,0.5Zm5.211,26.81c1.017,-0.281 2.071,0.316 2.352,1.333c0.281,1.017 -0.317,2.071 -1.334,2.352c-1.017,0.281 -2.071,-0.316 -2.352,-1.333c-0.281,-1.018 0.317,-2.071 1.334,-2.352Zm21.716,-1.965c0.323,-0.078 0.648,-0.143 0.975,-0.197c0.136,0.272 0.239,0.558 0.309,0.854c-0.297,0.175 -0.601,0.339 -0.911,0.491c0.04,0.281 0.04,0.565 -0.001,0.846c0.309,0.153 0.612,0.318 0.909,0.494c-0.07,0.296 -0.175,0.582 -0.312,0.853c-0.34,-0.057 -0.678,-0.127 -1.014,-0.209c-0.149,0.24 -0.333,0.458 -0.544,0.647c0.138,0.316 0.265,0.637 0.379,0.963c-0.244,0.181 -0.508,0.333 -0.787,0.453c-0.224,-0.263 -0.438,-0.534 -0.642,-0.812c-0.27,0.088 -0.55,0.137 -0.833,0.145c-0.098,0.332 -0.207,0.659 -0.329,0.982c-0.303,-0.019 -0.603,-0.072 -0.894,-0.159c-0.003,-0.346 0.007,-0.691 0.03,-1.035c-0.263,-0.106 -0.509,-0.248 -0.732,-0.424c-0.287,0.191 -0.582,0.371 -0.883,0.541c-0.22,-0.209 -0.416,-0.443 -0.582,-0.697c0.102,-0.124 0.207,-0.247 0.314,-0.367c0.717,-0.343 1.407,-0.696 2.064,-1.06c-0.122,-0.151 -0.208,-0.334 -0.244,-0.539c-0.113,-0.644 0.319,-1.259 0.964,-1.371c0.548,-0.096 1.074,0.202 1.288,0.689c-0.624,0.42 -1.297,0.827 -2.008,1.221c0.262,0.325 0.688,0.502 1.127,0.425c0.645,-0.113 1.077,-0.727 0.964,-1.372c-0.017,-0.096 -0.045,-0.188 -0.083,-0.274c0.528,-0.354 1.021,-0.717 1.476,-1.088Zm-38.692,-0.441c1.348,0 2.442,1.094 2.442,2.442c0,1.347 -1.094,2.442 -2.442,2.442c-1.347,0 -2.442,-1.095 -2.442,-2.442c0,-1.348 1.095,-2.442 2.442,-2.442Zm14.188,-24.515c-0.059,-0.077 -0.108,-0.165 -0.144,-0.261c-0.189,-0.509 0.072,-1.076 0.581,-1.264c0.509,-0.189 1.076,0.071 1.264,0.58c0.059,0.158 0.074,0.322 0.052,0.478c-0.581,0.165 -1.174,0.337 -1.753,0.467Z" style="fill:#010002;fill-rule:nonzero;"/></svg>