<?xml version="1.0" encoding="UTF-8" standalone="no"?><!DOCTYPE svg PUBLIC "-//W3C//DTD SVG 1.1//EN" "http://www.w3.org/Graphics/SVG/1.1/DTD/svg11.dtd"><svg width="100%" height="100%" viewBox="0 0 310 310" version="1.1" xmlns="http://www.w3.org/2000/svg" xmlns:xlink="http://www.w3.org/1999/xlink" xml:space="preserve" xmlns:serif="http://www.serif.com/" style="fill-rule:evenodd;clip-rule:evenodd;stroke-linejoin:round;stroke-miterlimit:1.41421;"><path d="M162.012,151.546c-0.248,-0.32 -0.504,-0.637 -0.81,-0.924c-20.297,-19.04 -24.906,-47.218 -10.277,-62.813l63.968,-68.19c2.822,-3.008 2.609,-7.794 -0.477,-10.689c-3.085,-2.893 -7.876,-2.802 -10.698,0.206l-63.966,68.188c-19.419,20.702 -15.546,56.208 8.083,80.979c0.248,0.32 0.503,0.636 0.81,0.924c20.296,19.039 24.905,47.218 10.276,62.812l-63.966,68.189c-2.821,3.008 -2.609,7.793 0.478,10.689c3.084,2.893 7.876,2.801 10.697,-0.206l63.966,-68.189c19.417,-20.699 15.546,-56.208 -8.084,-80.976Zm-103.419,12.294l-39.212,41.801c-2.896,3.087 -2.741,7.933 0.346,10.829c3.086,2.895 7.933,2.74 10.828,-0.346l39.213,-41.801c2.895,-3.086 2.74,-7.933 -0.346,-10.829c-3.083,-2.893 -7.934,-2.74 -10.829,0.346Zm37.368,89.317l-43.64,-28.196c-3.552,-2.295 -8.25,-1.348 -10.488,2.116c-2.238,3.464 -1.173,8.134 2.381,10.431l43.641,28.196c3.555,2.297 8.25,1.348 10.488,-2.116c2.238,-3.464 1.173,-8.134 -2.382,-10.431Zm26.606,-28.464l-43.803,-27.943c-3.565,-2.275 -8.258,-1.3 -10.476,2.176c-2.218,3.477 -1.126,8.141 2.442,10.417l43.803,27.944c3.568,2.276 8.258,1.3 10.476,-2.177c2.218,-3.476 1.126,-8.141 -2.442,-10.417Zm25.535,-27.068l-43.559,-28.323c-3.545,-2.305 -8.246,-1.371 -10.494,2.086c-2.248,3.457 -1.197,8.131 2.351,10.438l43.559,28.322c3.548,2.307 8.246,1.372 10.494,-2.085c2.25,-3.46 1.197,-8.131 -2.351,-10.438Zm-72.881,-40.312c3.087,2.896 7.934,2.741 10.829,-0.346l1.639,-1.747c7.87,-8.389 19.732,-11.444 32.168,-9.515c5.183,0.805 9.143,-4.509 7.185,-9.374c-0.121,-0.302 -0.241,-0.606 -0.359,-0.909c-0.986,-2.525 -3.254,-4.321 -5.94,-4.692c-16.851,-2.321 -33.175,2.223 -44.229,14.006l-1.639,1.748c-2.895,3.086 -2.738,7.936 0.346,10.829Zm220.592,-71.887c-3.155,-2.14 -7.416,-1.411 -9.962,1.303l-63.692,67.897c-7.658,8.163 -19.094,11.271 -31.162,9.654c-5.211,-0.699 -9.438,3.94 -7.852,8.969c0.071,0.231 0.144,0.459 0.216,0.69c0.872,2.808 3.304,4.856 6.213,5.237c16.683,2.171 32.809,-2.393 43.76,-14.067l63.965,-68.187c3.104,-3.309 2.536,-8.766 -1.486,-11.496Zm-132.588,25.692l43.527,28.372c3.545,2.311 8.244,1.381 10.496,-2.074c2.252,-3.455 1.206,-8.129 -2.339,-10.44l-43.527,-28.372c-3.543,-2.309 -8.244,-1.381 -10.496,2.074c-2.252,3.455 -1.206,8.129 2.339,10.44Zm23.134,-25.159l43.609,28.245c3.552,2.3 8.248,1.357 10.49,-2.105c2.242,-3.461 1.182,-8.133 -2.37,-10.433l-43.609,-28.245c-3.549,-2.299 -8.248,-1.357 -10.49,2.104c-2.242,3.461 -1.182,8.133 2.37,10.434Zm24.918,-26.562l43.612,28.24c3.552,2.301 8.249,1.357 10.49,-2.105c2.242,-3.462 1.182,-8.133 -2.371,-10.433l-43.612,-28.241c-3.549,-2.298 -8.248,-1.356 -10.49,2.106c-2.241,3.461 -1.181,8.133 2.371,10.433Z" style="fill-rule:nonzero;"/></svg>