<?xml version="1.0" encoding="UTF-8" standalone="no"?><!DOCTYPE svg PUBLIC "-//W3C//DTD SVG 1.1//EN" "http://www.w3.org/Graphics/SVG/1.1/DTD/svg11.dtd"><svg width="100%" height="100%" viewBox="0 0 126 126" version="1.1" xmlns="http://www.w3.org/2000/svg" xmlns:xlink="http://www.w3.org/1999/xlink" xml:space="preserve" xmlns:serif="http://www.serif.com/" style="fill-rule:evenodd;clip-rule:evenodd;stroke-linejoin:round;stroke-miterlimit:1.41421;"><g><path d="M33.883,98.228l7.429,0c0.905,0 1.773,0.36 2.414,1c0.64,0.64 0.999,1.508 0.999,2.414c0,1.582 0,3.459 0,5.042c0,0.906 -0.359,1.774 -0.999,2.414c-0.641,0.64 -1.509,1 -2.414,1c-0.097,0 -0.152,0 -0.152,0c-3.617,0 -6.568,1.968 -6.568,5.604c0,3.639 2.951,5.605 6.568,5.605l62.298,0c3.617,0 6.567,-1.967 6.567,-5.605c0,-2.345 -1.227,-3.996 -3.068,-4.873c-2.128,-0.999 -3.487,-3.139 -3.487,-5.49c-0.012,-0.001 -0.012,-0.002 -0.012,-0.002c0,-1.895 0.889,-3.681 2.4,-4.824c5.345,-4.045 8.832,-10.518 8.832,-17.794c0,-8.04 -4.283,-15.125 -10.661,-19.048c-0.095,-6.988 -1.809,-17.997 -9.519,-29.676l-5.235,5.744l-4.379,4.786l-0.952,1.053c3.235,5.84 4.569,11.2 4.949,15.221c-10.566,1.723 -18.562,10.912 -18.562,22.017c0,2.106 0.286,4.116 0.856,6.031l-37.21,0c-2.57,0 -4.664,2.106 -4.664,4.69c-0.095,2.585 2,4.691 4.57,4.691Zm58.628,-22.687c3.997,0 7.234,3.254 7.234,7.276c0,2.489 -1.237,4.69 -3.141,6.031c-1.142,0.765 -2.57,1.244 -3.998,1.244c-1.523,0 -2.856,-0.479 -3.998,-1.244c-1.904,-1.341 -3.141,-3.542 -3.141,-6.031c-0.191,-4.022 3.046,-7.276 7.044,-7.276Z" style="fill-rule:nonzero;"/><path d="M46.15,60.79l6.092,6.127c2.285,2.297 5.902,2.202 8.092,-0.192l37.029,-40.301c0.952,-1.053 1.523,-2.488 1.523,-3.829c0,-1.436 -0.476,-2.776 -1.523,-3.924c1.808,-1.149 2.951,-3.255 2.951,-5.553c0,-1.914 -0.762,-3.541 -1.999,-4.786c-1.238,-1.244 -2.856,-2.01 -4.76,-2.01c-2.284,0 -4.379,1.149 -5.521,2.967c-1.048,-1.053 -2.476,-1.531 -3.904,-1.531c-1.331,0 -2.759,0.478 -3.807,1.531l-40.17,37.238c-2.379,2.202 -2.379,5.839 -0.19,8.137l6.187,6.126Z" style="fill-rule:nonzero;"/></g></svg>