<?xml version="1.0" encoding="UTF-8" standalone="no"?><!DOCTYPE svg PUBLIC "-//W3C//DTD SVG 1.1//EN" "http://www.w3.org/Graphics/SVG/1.1/DTD/svg11.dtd"><svg width="100%" height="100%" viewBox="0 0 288 288" version="1.1" xmlns="http://www.w3.org/2000/svg" xmlns:xlink="http://www.w3.org/1999/xlink" xml:space="preserve" xmlns:serif="http://www.serif.com/" style="fill-rule:evenodd;clip-rule:evenodd;stroke-linejoin:round;stroke-miterlimit:1.41421;"><path d="M102.744,96.707l46.614,-40.662c20.921,-18.168 52.167,-22.765 75.377,-10.567c6.581,3.459 12.397,8.124 17.246,13.713c16.556,19.347 19.029,50.076 4.732,74.118c-3.802,6.394 -8.667,12.206 -14.273,17.191c-13.871,12.189 -27.774,24.343 -41.669,36.468l0.002,0.003l-11.937,10.428l-0.01,-0.011l-39.935,34.836c-25.684,22.304 -67.072,23.559 -90.442,-0.75c-13.808,-14.364 -19.567,-36.001 -14.962,-56.391c3.19,-14.128 11.111,-27.345 22.322,-37.314c15.612,-13.72 31.265,-27.394 46.935,-41.062Zm74.453,86.859l48.229,-40.987c17.168,-15.267 24.35,-40.568 16.754,-61.016c-2.114,-5.692 -5.321,-10.958 -9.267,-15.444c-14.198,-15.921 -39.303,-21.217 -60.563,-12.185c-5.693,2.419 -11.013,5.769 -15.762,9.845l-48.348,40.85c0,0 27.968,7.495 46.628,28.856c18.66,21.36 22.329,50.081 22.329,50.081Z"/></svg>