<?xml version="1.0" encoding="UTF-8" standalone="no"?><!DOCTYPE svg PUBLIC "-//W3C//DTD SVG 1.1//EN" "http://www.w3.org/Graphics/SVG/1.1/DTD/svg11.dtd"><svg width="100%" height="100%" viewBox="0 0 170 134" version="1.1" xmlns="http://www.w3.org/2000/svg" xmlns:xlink="http://www.w3.org/1999/xlink" xml:space="preserve" xmlns:serif="http://www.serif.com/" style="fill-rule:evenodd;clip-rule:evenodd;stroke-linejoin:round;stroke-miterlimit:1.41421;"><g><path d="M112.89,71.28l-31.32,-35.27c2.802,-0.213 5.639,-0.32 8.483,-0.32c8.867,0 17.68,1.061 25.663,3.083c-1.918,9.139 -2.892,18.621 -2.892,28.228c0,1.427 0.023,2.857 0.065,4.285m-14.36,26.694c-2.813,0.214 -5.648,0.323 -8.482,0.323c-8.868,0 -17.682,-1.061 -25.665,-3.082c1.922,-9.136 2.894,-18.62 2.894,-28.228c0,-1.428 -0.021,-2.857 -0.065,-4.285l31.318,35.272Zm-60.69,-15.9c-3.988,-3.73 -7.567,-8.824 -7.567,-15.087c0,-6.264 3.579,-11.357 7.567,-15.086c0.646,4.938 0.973,9.992 0.973,15.086c0,5.094 -0.327,10.151 -0.973,15.087m113.56,-6.15c-0.538,-0.536 -1.265,-0.833 -2.014,-0.833c-0.108,0 -0.218,0.007 -0.328,0.019c-0.862,0.099 -1.634,0.589 -2.091,1.328c-1.209,1.95 -2.786,3.835 -4.71,5.636c-0.645,-4.936 -0.971,-9.99 -0.971,-15.083c0,-5.093 0.326,-10.145 0.971,-15.083c1.924,1.801 3.501,3.686 4.71,5.636c0.457,0.739 1.229,1.228 2.091,1.328c0.11,0.013 0.22,0.02 0.327,0.02c0.75,0 1.477,-0.299 2.015,-0.834l15.942,-15.945c1.03,-1.027 1.117,-2.666 0.205,-3.797c-4.511,-5.603 -10.287,-10.643 -17.192,-15.011c1.222,-2.602 2.555,-5.067 3.972,-7.35c0.405,-0.651 0.529,-1.438 0.345,-2.183c-0.184,-0.745 -0.661,-1.383 -1.321,-1.77c-6.434,-3.78 -13.516,-6.972 -21.053,-9.488c-0.295,-0.099 -0.601,-0.147 -0.901,-0.147c-0.989,0 -1.934,0.517 -2.455,1.406c-1.529,2.608 -2.975,5.356 -4.318,8.192c-10.943,-3.152 -22.56,-4.748 -34.575,-4.748c-10.585,0 -20.918,1.247 -30.744,3.713l-7.13,-8.04c-0.544,-0.619 -1.324,-0.957 -2.123,-0.957c-0.291,0 -0.585,0.044 -0.87,0.137c-8.044,2.581 -15.59,5.927 -22.425,9.941c-0.734,0.432 -1.237,1.17 -1.37,2.012c-0.119,0.755 0.072,1.523 0.522,2.133c1.37,2.226 2.662,4.622 3.849,7.151c-17.788,11.263 -27.932,27.075 -27.932,43.69c0,16.617 10.144,32.426 27.932,43.69c-1.222,2.6 -2.554,5.062 -3.97,7.345c-0.404,0.653 -0.527,1.439 -0.344,2.184c0.184,0.743 0.66,1.383 1.322,1.772c6.431,3.777 13.515,6.97 21.049,9.486c0.298,0.1 0.603,0.146 0.901,0.146c0.989,0 1.935,-0.516 2.459,-1.406c1.528,-2.609 2.975,-5.356 4.315,-8.188c10.937,3.149 22.554,4.744 34.576,4.744c10.591,0 20.925,-1.248 30.744,-3.711l7.142,8.045c0.55,0.619 1.328,0.956 2.128,0.956c0.29,0 0.583,-0.043 0.872,-0.136c8.044,-2.582 15.588,-5.927 22.423,-9.942c0.732,-0.432 1.234,-1.168 1.37,-2.008c0.118,-0.754 -0.071,-1.523 -0.521,-2.133c-1.373,-2.228 -2.662,-4.629 -3.852,-7.159c6.905,-4.367 12.681,-9.408 17.192,-15.01c0.912,-1.132 0.825,-2.77 -0.205,-3.797l-15.95,-15.93l-0.009,-0.021Z" style="fill:#13294b;fill-rule:nonzero;"/><path d="M140.2,87.45c-1.147,-6.496 -1.762,-13.356 -1.762,-20.451c0,-7.094 0.615,-13.956 1.762,-20.452c3.922,2.856 7.046,6.056 9.184,9.505l15.945,-15.943c-4.783,-5.939 -11.104,-11.239 -18.603,-15.68c1.547,-3.565 3.28,-6.903 5.182,-9.967c-6.225,-3.657 -13.111,-6.77 -20.512,-9.242c-1.89,3.225 -3.634,6.631 -5.22,10.189c-10.973,-3.421 -23.214,-5.339 -36.128,-5.339c-11.208,0 -21.91,1.443 -31.714,4.059l-8.3,-9.347c-7.884,2.538 -15.224,5.808 -21.824,9.686l0.036,0.041c1.889,3.049 3.611,6.369 5.148,9.915c-17.611,10.427 -28.713,25.635 -28.713,42.575c0,16.938 11.102,32.145 28.713,42.572c-1.544,3.566 -3.278,6.901 -5.177,9.963c6.225,3.657 13.111,6.77 20.509,9.243c1.892,-3.226 3.634,-6.628 5.221,-10.187c10.973,3.421 23.215,5.335 36.129,5.335c11.208,0 21.912,-1.439 31.717,-4.056l8.297,9.346c7.912,-2.539 15.254,-5.807 21.852,-9.685l-0.036,-0.041c-1.89,-3.051 -3.612,-6.373 -5.152,-9.922c7.499,-4.439 13.82,-9.741 18.603,-15.679l-15.94,-15.954c-2.138,3.45 -5.262,6.649 -9.184,9.505m-100.3,0c-7.831,-5.714 -12.469,-12.795 -12.469,-20.467c0,-7.673 4.638,-14.754 12.468,-20.458c1.149,6.497 1.764,13.361 1.764,20.458c0,7.097 -0.615,13.959 -1.764,20.456m50.15,13.7c-10.479,0 -20.352,-1.406 -29.031,-3.888c2.212,-9.522 3.412,-19.697 3.412,-30.268c0,-4.175 -0.185,-8.288 -0.548,-12.324l40.467,45.58c-4.593,0.586 -9.379,0.9 -14.3,0.9m26.17,-21.83l-40.472,-45.584c4.596,-0.585 9.383,-0.896 14.305,-0.896c10.479,0 20.352,1.406 29.031,3.887c-2.211,9.524 -3.412,19.698 -3.412,30.27c0,4.174 0.186,8.287 0.548,12.323" style="fill:#7bafd4;fill-rule:nonzero;"/></g></svg>